<svg width="22" height="14" viewBox="0 0 22 14" fill="none" xmlns="http://www.w3.org/2000/svg">
<path d="M16.5075 0C14.5566 0 12.4557 0.325422 11.005 1.22033C9.55434 0.325422 7.45339 0 5.5025 0C4.05184 0 2.51114 0.178982 1.22055 0.642709C0.490223 0.911182 0 1.48881 0 2.14779V11.3247C0 12.3823 1.22055 13.1633 2.48113 12.903C3.46157 12.6996 4.50205 12.6101 5.5025 12.6101C7.06321 12.6101 8.72397 12.8216 10.0646 13.3586C10.6648 13.6026 11.3452 13.6026 11.9354 13.3586C13.276 12.8135 14.9368 12.6101 16.4975 12.6101C17.498 12.6101 18.5384 12.6996 19.5189 12.903C20.7794 13.1715 22 12.3904 22 11.3247V2.14779C22 1.48881 21.5098 0.911182 20.7794 0.642709C19.4989 0.178982 17.9582 0 16.5075 0ZM20.0091 10.3566C20.0091 10.8691 19.4288 11.2433 18.8085 11.1538C18.0582 11.0399 17.2779 10.9911 16.5075 10.9911C14.8067 10.9911 12.3556 11.5199 11.005 12.2115V2.84744C12.3556 2.15592 14.8067 1.62711 16.5075 1.62711C17.4279 1.62711 18.3383 1.70033 19.2087 1.85491C19.6689 1.93626 20.0091 2.26982 20.0091 2.65219V10.3566Z" fill="url(#paint0_linear_26_55)"/>
<path d="M11.7478 5.62622C11.4277 5.62622 11.1375 5.46361 11.0375 5.20342C10.9074 4.88632 11.1275 4.5367 11.5177 4.43913C13.0584 4.0326 15.0493 3.9025 16.8801 4.07325C17.2903 4.1139 17.5905 4.41474 17.5404 4.7481C17.4904 5.08146 17.1203 5.32538 16.7101 5.28473C15.0893 5.13025 13.3185 5.25221 11.9779 5.60183C11.8979 5.60996 11.8178 5.62622 11.7478 5.62622Z" fill="url(#paint1_linear_26_55)"/>
<path d="M11.7478 7.7915C11.4277 7.7915 11.1375 7.62878 11.0375 7.36842C10.9074 7.05111 11.1275 6.70125 11.5177 6.60361C13.0484 6.1968 15.0493 6.06662 16.8801 6.23748C17.2903 6.27816 17.5905 6.57921 17.5404 6.91279C17.4904 7.24638 17.1203 7.49046 16.7101 7.44978C15.0893 7.29519 13.3185 7.41724 11.9779 7.7671C11.8979 7.78337 11.8178 7.7915 11.7478 7.7915Z" fill="url(#paint2_linear_26_55)"/>
<path d="M11.7478 9.95435C11.4277 9.95435 11.1375 9.79173 11.0375 9.53155C10.9074 9.21445 11.1275 8.86483 11.5177 8.76726C13.0484 8.36072 15.0493 8.23063 16.8801 8.40137C17.2903 8.44203 17.5905 8.74287 17.5404 9.07623C17.4904 9.40959 17.1203 9.64538 16.7101 9.61285C15.0893 9.45837 13.3185 9.58033 11.9779 9.92995C11.8979 9.94621 11.8178 9.95435 11.7478 9.95435Z" fill="url(#paint3_linear_26_55)"/>
<defs>
<linearGradient id="paint0_linear_26_55" x1="11" y1="0" x2="11" y2="13.5416" gradientUnits="userSpaceOnUse">
<stop stop-color="#EE82EE"/>
<stop offset="1" stop-color="#9400D3"/>
</linearGradient>
<linearGradient id="paint1_linear_26_55" x1="14.2729" y1="4" x2="14.2729" y2="5.62622" gradientUnits="userSpaceOnUse">
<stop stop-color="#EE82EE"/>
<stop offset="1" stop-color="#9400D3"/>
</linearGradient>
<linearGradient id="paint2_linear_26_55" x1="14.2729" y1="6.16418" x2="14.2729" y2="7.7915" gradientUnits="userSpaceOnUse">
<stop stop-color="#EE82EE"/>
<stop offset="1" stop-color="#9400D3"/>
</linearGradient>
<linearGradient id="paint3_linear_26_55" x1="14.2729" y1="8.32812" x2="14.2729" y2="9.95435" gradientUnits="userSpaceOnUse">
<stop stop-color="#EE82EE"/>
<stop offset="1" stop-color="#9400D3"/>
</linearGradient>
</defs>
</svg>
