<svg width="22" height="17" viewBox="0 0 22 17" fill="none" xmlns="http://www.w3.org/2000/svg">
<path d="M11.8712 11.1213C12.0139 10.8284 11.9222 10.4949 11.6368 10.2671L9.50715 8.59115L9.53772 8.56674C11.3108 6.98844 12.5743 5.17422 13.3182 3.25422H15.295C15.8453 3.25422 16.3038 2.88812 16.3038 2.4488V2.43253C16.3038 1.99321 15.8453 1.62711 15.295 1.62711H9.17089V0.813556C9.17089 0.3661 8.71234 0 8.1519 0C7.59146 0 7.13291 0.3661 7.13291 0.813556V1.62711H1.0088C0.458544 1.62711 0 1.99321 0 2.43253C0 2.87999 0.458544 3.23795 1.0088 3.23795H11.3821C10.6994 4.81625 9.61924 6.30506 8.1519 7.60675C7.32652 6.88268 6.63361 6.09353 6.05279 5.26371C5.88975 5.02778 5.59424 4.88134 5.25798 4.88134C4.55487 4.88134 4.10652 5.4915 4.45298 5.97964C5.09494 6.89895 5.87956 7.77759 6.79665 8.59115L2.34367 12.0976C1.93608 12.4149 1.93608 12.9355 2.34367 13.2528C2.74108 13.5701 3.38304 13.5701 3.79063 13.2528L8.1519 9.76267L10.2103 11.4061C10.7299 11.821 11.6165 11.6664 11.8712 11.1213V11.1213ZM16.8133 6.50845C16.2019 6.50845 15.6516 6.80946 15.4377 7.27319L11.698 15.246C11.4534 15.7423 11.9222 16.2711 12.5845 16.2711C12.9819 16.2711 13.3385 16.0759 13.4812 15.7748L14.3881 13.8305H19.2283L20.1454 15.7748C20.288 16.0677 20.6447 16.2711 21.0421 16.2711C21.7044 16.2711 22.1732 15.7423 21.9388 15.246L18.1991 7.27319C17.9749 6.80946 17.4247 6.50845 16.8133 6.50845V6.50845ZM15.1625 12.2033L16.8133 8.68064L18.4641 12.2033H15.1625V12.2033Z" fill="url(#paint0_linear_26_63)"/>
<defs>
<linearGradient id="paint0_linear_26_63" x1="11" y1="0" x2="11" y2="16.2711" gradientUnits="userSpaceOnUse">
<stop stop-color="#EE82EE"/>
<stop offset="1" stop-color="#9400D3"/>
</linearGradient>
</defs>
</svg>
