<svg width="455" height="39" viewBox="0 0 455 39" fill="none" xmlns="http://www.w3.org/2000/svg">
<path d="M3.24799 38C2.54399 38 1.95199 37.76 1.47199 37.28C1.02399 36.8 0.799988 36.208 0.799988 35.504V3.00802C0.799988 2.30402 1.03999 1.71202 1.51999 1.23202C1.99999 0.752024 2.57599 0.512024 3.24799 0.512024C3.95199 0.512024 4.54399 0.752024 5.02399 1.23202C5.50399 1.71202 5.74399 2.30402 5.74399 3.00802V33.008H23.12C23.824 33.008 24.416 33.248 24.896 33.728C25.376 34.208 25.616 34.8 25.616 35.504C25.616 36.208 25.376 36.8 24.896 37.28C24.416 37.76 23.824 38 23.12 38H3.24799Z" fill="black"/>
<path d="M42.1569 38.24C39.9489 38.24 37.9649 37.776 36.2049 36.848C34.4769 35.888 33.1009 34.496 32.0769 32.672C31.0849 30.848 30.5889 28.608 30.5889 25.952V14.144C30.5889 13.44 30.8129 12.864 31.2609 12.416C31.7409 11.936 32.3329 11.696 33.0369 11.696C33.7409 11.696 34.3169 11.936 34.7649 12.416C35.2449 12.864 35.4849 13.44 35.4849 14.144V25.952C35.4849 27.744 35.8209 29.232 36.4929 30.416C37.1649 31.568 38.0769 32.432 39.2289 33.008C40.3809 33.552 41.6769 33.824 43.1169 33.824C44.4929 33.824 45.7089 33.552 46.7649 33.008C47.8529 32.464 48.7169 31.728 49.3569 30.8C49.9969 29.872 50.3169 28.832 50.3169 27.68H53.3409C53.3409 29.664 52.8449 31.456 51.8529 33.056C50.8929 34.656 49.5649 35.92 47.8689 36.848C46.2049 37.776 44.3009 38.24 42.1569 38.24ZM52.7649 38C52.0609 38 51.4689 37.776 50.9889 37.328C50.5409 36.848 50.3169 36.256 50.3169 35.552V14.144C50.3169 13.408 50.5409 12.816 50.9889 12.368C51.4689 11.92 52.0609 11.696 52.7649 11.696C53.5009 11.696 54.0929 11.92 54.5409 12.368C54.9889 12.816 55.2129 13.408 55.2129 14.144V35.552C55.2129 36.256 54.9889 36.848 54.5409 37.328C54.0929 37.776 53.5009 38 52.7649 38Z" fill="black"/>
<path d="M75.7396 38.192C73.1796 38.192 70.8916 37.616 68.8756 36.464C66.8916 35.28 65.3236 33.696 64.1716 31.712C63.0516 29.696 62.4916 27.424 62.4916 24.896C62.4916 22.304 63.0516 20 64.1716 17.984C65.2916 15.968 66.8276 14.4 68.7796 13.28C70.7316 12.128 72.9716 11.552 75.4996 11.552C77.3876 11.552 79.1156 11.92 80.6836 12.656C82.2516 13.36 83.6596 14.432 84.9076 15.872C85.3556 16.384 85.5156 16.912 85.3876 17.456C85.2596 18 84.9076 18.48 84.3316 18.896C83.8836 19.216 83.3876 19.328 82.8436 19.232C82.2996 19.104 81.8036 18.816 81.3556 18.368C79.7876 16.704 77.8356 15.872 75.4996 15.872C73.8676 15.872 72.4276 16.256 71.1796 17.024C69.9316 17.76 68.9556 18.8 68.2516 20.144C67.5476 21.488 67.1956 23.072 67.1956 24.896C67.1956 26.624 67.5476 28.16 68.2516 29.504C68.9876 30.848 69.9956 31.92 71.2756 32.72C72.5556 33.488 74.0436 33.872 75.7396 33.872C76.8596 33.872 77.8356 33.744 78.6676 33.488C79.5316 33.2 80.3156 32.768 81.0196 32.192C81.5316 31.776 82.0596 31.552 82.6036 31.52C83.1476 31.456 83.6276 31.6 84.0436 31.952C84.5876 32.4 84.8916 32.912 84.9556 33.488C85.0196 34.032 84.8276 34.528 84.3796 34.976C82.0756 37.12 79.1956 38.192 75.7396 38.192Z" fill="black"/>
<path d="M103.608 38.192C101.272 38.192 99.1757 37.616 97.3197 36.464C95.4637 35.28 93.9917 33.696 92.9037 31.712C91.8477 29.696 91.3197 27.424 91.3197 24.896C91.3197 22.368 91.8957 20.096 93.0477 18.08C94.2317 16.064 95.8157 14.48 97.7997 13.328C99.8157 12.144 102.072 11.552 104.568 11.552C107.064 11.552 109.304 12.144 111.288 13.328C113.272 14.48 114.84 16.064 115.992 18.08C117.176 20.096 117.768 22.368 117.768 24.896H115.896C115.896 27.424 115.352 29.696 114.264 31.712C113.208 33.696 111.752 35.28 109.896 36.464C108.04 37.616 105.944 38.192 103.608 38.192ZM104.568 33.872C106.2 33.872 107.656 33.488 108.936 32.72C110.216 31.92 111.224 30.848 111.96 29.504C112.696 28.128 113.064 26.592 113.064 24.896C113.064 23.168 112.696 21.632 111.96 20.288C111.224 18.912 110.216 17.84 108.936 17.072C107.656 16.272 106.2 15.872 104.568 15.872C102.968 15.872 101.512 16.272 100.2 17.072C98.9197 17.84 97.8957 18.912 97.1277 20.288C96.3917 21.632 96.0237 23.168 96.0237 24.896C96.0237 26.592 96.3917 28.128 97.1277 29.504C97.8957 30.848 98.9197 31.92 100.2 32.72C101.512 33.488 102.968 33.872 104.568 33.872ZM115.32 38.048C114.616 38.048 114.024 37.824 113.544 37.376C113.096 36.896 112.872 36.304 112.872 35.6V28.256L113.784 23.168L117.768 24.896V35.6C117.768 36.304 117.528 36.896 117.048 37.376C116.6 37.824 116.024 38.048 115.32 38.048Z" fill="black"/>
<path d="M134.606 38.192C132.366 38.192 130.286 37.856 128.366 37.184C126.478 36.48 125.006 35.6 123.95 34.544C123.47 34.032 123.262 33.456 123.326 32.816C123.422 32.144 123.742 31.6 124.286 31.184C124.926 30.672 125.55 30.464 126.158 30.56C126.798 30.624 127.342 30.896 127.79 31.376C128.334 31.984 129.198 32.56 130.382 33.104C131.598 33.616 132.942 33.872 134.414 33.872C136.27 33.872 137.678 33.568 138.638 32.96C139.63 32.352 140.142 31.568 140.174 30.608C140.206 29.648 139.742 28.816 138.782 28.112C137.854 27.408 136.142 26.832 133.646 26.384C130.414 25.744 128.062 24.784 126.59 23.504C125.15 22.224 124.43 20.656 124.43 18.8C124.43 17.168 124.91 15.824 125.87 14.768C126.83 13.68 128.062 12.88 129.566 12.368C131.07 11.824 132.638 11.552 134.27 11.552C136.382 11.552 138.254 11.888 139.886 12.56C141.518 13.232 142.814 14.16 143.774 15.344C144.222 15.856 144.43 16.4 144.398 16.976C144.366 17.52 144.094 17.984 143.582 18.368C143.07 18.72 142.462 18.832 141.758 18.704C141.054 18.576 140.462 18.288 139.982 17.84C139.182 17.072 138.318 16.544 137.39 16.256C136.462 15.968 135.39 15.824 134.174 15.824C132.766 15.824 131.566 16.064 130.574 16.544C129.614 17.024 129.134 17.728 129.134 18.656C129.134 19.232 129.278 19.76 129.566 20.24C129.886 20.688 130.494 21.104 131.39 21.488C132.286 21.84 133.598 22.192 135.326 22.544C137.726 23.024 139.614 23.632 140.99 24.368C142.398 25.104 143.406 25.968 144.014 26.96C144.622 27.92 144.926 29.04 144.926 30.32C144.926 31.792 144.526 33.12 143.726 34.304C142.958 35.488 141.806 36.432 140.27 37.136C138.766 37.84 136.878 38.192 134.606 38.192Z" fill="black"/>
<path d="M168.155 38C167.451 38 166.859 37.76 166.379 37.28C165.899 36.8 165.659 36.208 165.659 35.504V3.00802C165.659 2.27202 165.899 1.68002 166.379 1.23202C166.859 0.752024 167.451 0.512024 168.155 0.512024C169.115 0.512024 169.851 0.960024 170.363 1.85602L185.387 31.952H183.851L198.491 1.85602C199.003 0.960024 199.739 0.512024 200.699 0.512024C201.403 0.512024 201.995 0.752024 202.475 1.23202C202.955 1.68002 203.195 2.27202 203.195 3.00802V35.504C203.195 36.208 202.939 36.8 202.427 37.28C201.947 37.76 201.371 38 200.699 38C199.995 38 199.403 37.76 198.923 37.28C198.443 36.8 198.203 36.208 198.203 35.504V9.92002L199.163 9.68002L186.587 35.312C186.043 36.144 185.323 36.56 184.427 36.56C183.371 36.56 182.603 36.064 182.123 35.072L169.691 10.16L170.651 9.92002V35.504C170.651 36.208 170.411 36.8 169.931 37.28C169.451 37.76 168.859 38 168.155 38Z" fill="black"/>
<path d="M223.28 38.192C220.944 38.192 218.848 37.616 216.992 36.464C215.136 35.28 213.664 33.696 212.576 31.712C211.52 29.696 210.992 27.424 210.992 24.896C210.992 22.368 211.568 20.096 212.72 18.08C213.904 16.064 215.488 14.48 217.472 13.328C219.488 12.144 221.744 11.552 224.24 11.552C226.736 11.552 228.976 12.144 230.96 13.328C232.944 14.48 234.512 16.064 235.664 18.08C236.848 20.096 237.44 22.368 237.44 24.896H235.568C235.568 27.424 235.024 29.696 233.936 31.712C232.88 33.696 231.424 35.28 229.568 36.464C227.712 37.616 225.616 38.192 223.28 38.192ZM224.24 33.872C225.872 33.872 227.328 33.488 228.608 32.72C229.888 31.92 230.896 30.848 231.632 29.504C232.368 28.128 232.736 26.592 232.736 24.896C232.736 23.168 232.368 21.632 231.632 20.288C230.896 18.912 229.888 17.84 228.608 17.072C227.328 16.272 225.872 15.872 224.24 15.872C222.64 15.872 221.184 16.272 219.872 17.072C218.592 17.84 217.568 18.912 216.8 20.288C216.064 21.632 215.696 23.168 215.696 24.896C215.696 26.592 216.064 28.128 216.8 29.504C217.568 30.848 218.592 31.92 219.872 32.72C221.184 33.488 222.64 33.872 224.24 33.872ZM234.992 38.048C234.288 38.048 233.696 37.824 233.216 37.376C232.768 36.896 232.544 36.304 232.544 35.6V28.256L233.456 23.168L237.44 24.896V35.6C237.44 36.304 237.2 36.896 236.72 37.376C236.272 37.824 235.696 38.048 234.992 38.048Z" fill="black"/>
<path d="M247.078 21.584C247.078 19.664 247.542 17.952 248.47 16.448C249.43 14.912 250.71 13.696 252.31 12.8C253.91 11.904 255.67 11.456 257.59 11.456C259.51 11.456 260.934 11.776 261.862 12.416C262.822 13.024 263.19 13.76 262.966 14.624C262.87 15.072 262.678 15.424 262.39 15.68C262.134 15.904 261.83 16.048 261.478 16.112C261.126 16.176 260.742 16.16 260.326 16.064C258.278 15.648 256.438 15.616 254.806 15.968C253.174 16.32 251.878 16.976 250.918 17.936C249.99 18.896 249.526 20.112 249.526 21.584H247.078ZM247.126 38C246.358 38 245.766 37.808 245.35 37.424C244.934 37.008 244.726 36.4 244.726 35.6V14.144C244.726 13.376 244.934 12.784 245.35 12.368C245.766 11.952 246.358 11.744 247.126 11.744C247.926 11.744 248.518 11.952 248.902 12.368C249.318 12.752 249.526 13.344 249.526 14.144V35.6C249.526 36.368 249.318 36.96 248.902 37.376C248.518 37.792 247.926 38 247.126 38Z" fill="black"/>
<path d="M278.052 38.192C275.492 38.192 273.204 37.616 271.188 36.464C269.204 35.28 267.636 33.696 266.484 31.712C265.364 29.696 264.804 27.424 264.804 24.896C264.804 22.304 265.364 20 266.484 17.984C267.604 15.968 269.14 14.4 271.092 13.28C273.044 12.128 275.284 11.552 277.812 11.552C279.7 11.552 281.428 11.92 282.996 12.656C284.564 13.36 285.972 14.432 287.22 15.872C287.668 16.384 287.828 16.912 287.7 17.456C287.572 18 287.22 18.48 286.644 18.896C286.196 19.216 285.7 19.328 285.156 19.232C284.612 19.104 284.116 18.816 283.668 18.368C282.1 16.704 280.148 15.872 277.812 15.872C276.18 15.872 274.74 16.256 273.492 17.024C272.244 17.76 271.268 18.8 270.564 20.144C269.86 21.488 269.508 23.072 269.508 24.896C269.508 26.624 269.86 28.16 270.564 29.504C271.3 30.848 272.308 31.92 273.588 32.72C274.868 33.488 276.356 33.872 278.052 33.872C279.172 33.872 280.148 33.744 280.98 33.488C281.844 33.2 282.628 32.768 283.332 32.192C283.844 31.776 284.372 31.552 284.916 31.52C285.46 31.456 285.94 31.6 286.356 31.952C286.9 32.4 287.204 32.912 287.268 33.488C287.332 34.032 287.14 34.528 286.692 34.976C284.388 37.12 281.508 38.192 278.052 38.192Z" fill="black"/>
<path d="M297.424 28.448C296.72 28.448 296.128 28.224 295.648 27.776C295.2 27.296 294.976 26.704 294.976 26V2.96002C294.976 2.22402 295.2 1.63202 295.648 1.18402C296.128 0.736024 296.72 0.512024 297.424 0.512024C298.16 0.512024 298.752 0.736024 299.2 1.18402C299.648 1.63202 299.872 2.22402 299.872 2.96002V26C299.872 26.704 299.648 27.296 299.2 27.776C298.752 28.224 298.16 28.448 297.424 28.448ZM317.152 38.048C316.448 38.048 315.856 37.824 315.376 37.376C314.928 36.896 314.704 36.304 314.704 35.6V23.792C314.704 21.968 314.368 20.48 313.696 19.328C313.024 18.176 312.112 17.328 310.96 16.784C309.84 16.208 308.544 15.92 307.072 15.92C305.728 15.92 304.512 16.192 303.424 16.736C302.336 17.28 301.472 18.016 300.832 18.944C300.192 19.84 299.872 20.88 299.872 22.064H296.848C296.848 20.048 297.328 18.256 298.288 16.688C299.28 15.088 300.624 13.824 302.32 12.896C304.016 11.968 305.92 11.504 308.032 11.504C310.24 11.504 312.208 11.984 313.936 12.944C315.696 13.872 317.072 15.248 318.064 17.072C319.088 18.896 319.6 21.136 319.6 23.792V35.6C319.6 36.304 319.36 36.896 318.88 37.376C318.432 37.824 317.856 38.048 317.152 38.048ZM297.424 38.048C296.72 38.048 296.128 37.824 295.648 37.376C295.2 36.896 294.976 36.304 294.976 35.6V14.192C294.976 13.456 295.2 12.864 295.648 12.416C296.128 11.968 296.72 11.744 297.424 11.744C298.16 11.744 298.752 11.968 299.2 12.416C299.648 12.864 299.872 13.456 299.872 14.192V35.6C299.872 36.304 299.648 36.896 299.2 37.376C298.752 37.824 298.16 38.048 297.424 38.048Z" fill="black"/>
<path d="M340.078 38.192C337.422 38.192 335.054 37.632 332.974 36.512C330.926 35.36 329.31 33.792 328.126 31.808C326.974 29.792 326.398 27.488 326.398 24.896C326.398 22.272 326.942 19.968 328.03 17.984C329.15 15.968 330.686 14.4 332.638 13.28C334.59 12.128 336.83 11.552 339.358 11.552C341.854 11.552 343.998 12.112 345.79 13.232C347.582 14.32 348.942 15.84 349.87 17.792C350.83 19.712 351.31 21.936 351.31 24.464C351.31 25.072 351.102 25.584 350.686 26C350.27 26.384 349.742 26.576 349.102 26.576H329.758V22.736H348.958L346.99 24.08C346.958 22.48 346.638 21.056 346.03 19.808C345.422 18.528 344.558 17.52 343.438 16.784C342.318 16.048 340.958 15.68 339.358 15.68C337.534 15.68 335.966 16.08 334.654 16.88C333.374 17.68 332.398 18.784 331.726 20.192C331.054 21.568 330.718 23.136 330.718 24.896C330.718 26.656 331.118 28.224 331.918 29.6C332.718 30.976 333.822 32.064 335.23 32.864C336.638 33.664 338.254 34.064 340.078 34.064C341.07 34.064 342.078 33.888 343.102 33.536C344.158 33.152 345.006 32.72 345.646 32.24C346.126 31.888 346.638 31.712 347.182 31.712C347.758 31.68 348.254 31.84 348.67 32.192C349.214 32.672 349.502 33.2 349.534 33.776C349.566 34.352 349.31 34.848 348.766 35.264C347.678 36.128 346.318 36.832 344.686 37.376C343.086 37.92 341.55 38.192 340.078 38.192Z" fill="black"/>
<path d="M367.106 38.192C364.866 38.192 362.786 37.856 360.866 37.184C358.978 36.48 357.506 35.6 356.45 34.544C355.97 34.032 355.762 33.456 355.826 32.816C355.922 32.144 356.242 31.6 356.786 31.184C357.426 30.672 358.05 30.464 358.658 30.56C359.298 30.624 359.842 30.896 360.29 31.376C360.834 31.984 361.698 32.56 362.882 33.104C364.098 33.616 365.442 33.872 366.914 33.872C368.77 33.872 370.178 33.568 371.138 32.96C372.13 32.352 372.642 31.568 372.674 30.608C372.706 29.648 372.242 28.816 371.282 28.112C370.354 27.408 368.642 26.832 366.146 26.384C362.914 25.744 360.562 24.784 359.09 23.504C357.65 22.224 356.93 20.656 356.93 18.8C356.93 17.168 357.41 15.824 358.37 14.768C359.33 13.68 360.562 12.88 362.066 12.368C363.57 11.824 365.138 11.552 366.77 11.552C368.882 11.552 370.754 11.888 372.386 12.56C374.018 13.232 375.314 14.16 376.274 15.344C376.722 15.856 376.93 16.4 376.898 16.976C376.866 17.52 376.594 17.984 376.082 18.368C375.57 18.72 374.962 18.832 374.258 18.704C373.554 18.576 372.962 18.288 372.482 17.84C371.682 17.072 370.818 16.544 369.89 16.256C368.962 15.968 367.89 15.824 366.674 15.824C365.266 15.824 364.066 16.064 363.074 16.544C362.114 17.024 361.634 17.728 361.634 18.656C361.634 19.232 361.778 19.76 362.066 20.24C362.386 20.688 362.994 21.104 363.89 21.488C364.786 21.84 366.098 22.192 367.826 22.544C370.226 23.024 372.114 23.632 373.49 24.368C374.898 25.104 375.906 25.968 376.514 26.96C377.122 27.92 377.426 29.04 377.426 30.32C377.426 31.792 377.026 33.12 376.226 34.304C375.458 35.488 374.306 36.432 372.77 37.136C371.266 37.84 369.378 38.192 367.106 38.192Z" fill="black"/>
<path d="M395.521 38.192C392.929 38.192 390.641 37.632 388.657 36.512C386.673 35.36 385.105 33.792 383.953 31.808C382.833 29.792 382.273 27.488 382.273 24.896C382.273 22.272 382.833 19.968 383.953 17.984C385.105 15.968 386.673 14.4 388.657 13.28C390.641 12.128 392.929 11.552 395.521 11.552C398.081 11.552 400.353 12.128 402.337 13.28C404.321 14.4 405.873 15.968 406.993 17.984C408.145 19.968 408.721 22.272 408.721 24.896C408.721 27.488 408.161 29.792 407.041 31.808C405.921 33.792 404.369 35.36 402.385 36.512C400.401 37.632 398.113 38.192 395.521 38.192ZM395.521 33.872C397.185 33.872 398.657 33.488 399.937 32.72C401.217 31.952 402.209 30.896 402.913 29.552C403.649 28.208 404.017 26.656 404.017 24.896C404.017 23.136 403.649 21.584 402.913 20.24C402.209 18.864 401.217 17.792 399.937 17.024C398.657 16.256 397.185 15.872 395.521 15.872C393.857 15.872 392.385 16.256 391.105 17.024C389.825 17.792 388.817 18.864 388.081 20.24C387.345 21.584 386.977 23.136 386.977 24.896C386.977 26.656 387.345 28.208 388.081 29.552C388.817 30.896 389.825 31.952 391.105 32.72C392.385 33.488 393.857 33.872 395.521 33.872Z" fill="black"/>
<path d="M438.184 38.048C437.48 38.048 436.888 37.824 436.408 37.376C435.96 36.896 435.736 36.304 435.736 35.6V23.792C435.736 21.968 435.399 20.48 434.727 19.328C434.055 18.176 433.143 17.328 431.991 16.784C430.871 16.208 429.575 15.92 428.103 15.92C426.759 15.92 425.543 16.192 424.455 16.736C423.367 17.28 422.503 18.016 421.863 18.944C421.223 19.84 420.903 20.88 420.903 22.064H417.879C417.879 20.048 418.359 18.256 419.319 16.688C420.311 15.088 421.656 13.824 423.352 12.896C425.048 11.968 426.951 11.504 429.063 11.504C431.271 11.504 433.239 11.984 434.967 12.944C436.727 13.872 438.103 15.248 439.095 17.072C440.119 18.896 440.632 21.136 440.632 23.792V35.6C440.632 36.304 440.392 36.896 439.911 37.376C439.463 37.824 438.888 38.048 438.184 38.048ZM418.455 38.048C417.751 38.048 417.159 37.824 416.679 37.376C416.231 36.896 416.007 36.304 416.007 35.6V14.192C416.007 13.456 416.231 12.864 416.679 12.416C417.159 11.968 417.751 11.744 418.455 11.744C419.191 11.744 419.783 11.968 420.231 12.416C420.679 12.864 420.903 13.456 420.903 14.192V35.6C420.903 36.304 420.679 36.896 420.231 37.376C419.783 37.824 419.191 38.048 418.455 38.048Z" fill="black"/>
<path d="M451.654 38C450.95 38 450.358 37.776 449.878 37.328C449.43 36.848 449.206 36.256 449.206 35.552V14.192C449.206 13.456 449.43 12.864 449.878 12.416C450.358 11.968 450.95 11.744 451.654 11.744C452.39 11.744 452.982 11.968 453.43 12.416C453.878 12.864 454.102 13.456 454.102 14.192V35.552C454.102 36.256 453.878 36.848 453.43 37.328C452.982 37.776 452.39 38 451.654 38ZM451.654 7.47202C450.79 7.47202 450.038 7.16802 449.398 6.56002C448.79 5.92002 448.486 5.16802 448.486 4.30402C448.486 3.44002 448.79 2.70402 449.398 2.09602C450.038 1.45602 450.79 1.13602 451.654 1.13602C452.518 1.13602 453.254 1.45602 453.862 2.09602C454.502 2.70402 454.822 3.44002 454.822 4.30402C454.822 5.16802 454.502 5.92002 453.862 6.56002C453.254 7.16802 452.518 7.47202 451.654 7.47202Z" fill="black"/>
</svg>
